# xmcd CD database file
#
# Track frame offsets:
#	150
#	20240
#	36125
#	54772
#	77257
#	100345
#	122482
#	140562
#	166250
#	191325
#	211917
#	234492
#	255180
#	278205
#	299405
#	329202
#
# Disc length: 4795 seconds
#
# Revision: 7
# Processed by: cddbd v1.5.2PL0 Copyright (c) Steve Scherf et al.
# Submitted via: CDex 1.70beta3
#
DISCID=dd12b910
DTITLE=EXILE - SELECT BEST
DYEAR=2005
DGENRE=JPop
TTITLE0=STAY
TTITLE1=ESCAPE
TTITLE2=wishes
TTITLE3=Time
TTITLE4=BLUE 邵ｲ諛会ｽｺ莉｣竏ｴ邵ｺ螢ｹ竊鍋ｸｺ繝ｻ・狗ｸｲ
TTITLE5=驕舌ｈ蜃ｾ髫ｪ
TTITLE6=LET ME LUV  U DOWN feat. ZEEBRA and MACCHO
TTITLE7=Be Mine feat,99% Radio Allstars
TTITLE8=Eternal...
TTITLE9=ki郢晢ｽｻzu郢晢ｽｻna
TTITLE10=O'ver
TTITLE11=New Jack Swing
TTITLE12=Believe
TTITLE13=Emotinol Beat
TTITLE14=郢ｧ・､郢晏ｼｱ繝｡邵ｺ・ｮ騾・・鄂ｰ
TTITLE15=data
EXTD=YEAR: 2005
EXTT0=
EXTT1=
EXTT2=
EXTT3=
EXTT4=
EXTT5=
EXTT6=
EXTT7=
EXTT8=
EXTT9=
EXTT10=
EXTT11=
EXTT12=
EXTT13=
EXTT14=
EXTT15=
PLAYORDER=
